[Header]
FileType HTR
DataType HTRS
FileVersion 1
NumSegments 64
NumFrames 2
DataFrameRate 24
EulerRotationOrder ZYX
CalibrationUnits mm
RotationUnits Degrees
GlobalAxisofGravity Y
BoneLengthAxis Y
ScaleFactor 1.0
[SegmentNames&Hierarchy]
Hips	GLOBAL
Spine	Hips
Spine1	Spine
Spine2	Spine1
Neck	Spine2
Head	Neck
LeftEye	Head
RightEye	Head
LeftShoulder	Spine2
LeftArm	LeftShoulder
LeftForeArm	LeftArm
LeftHand	LeftForeArm
LeftHandThumb1	LeftHand
LeftHandThumb2	LeftHandThumb1
LeftHandThumb3	LeftHandThumb2
LeftHandThumb4	LeftHandThumb3
LeftHandIndex1	LeftHand
LeftHandIndex2	LeftHandIndex1
LeftHandIndex3	LeftHandIndex2
LeftHandIndex4	LeftHandIndex3
LeftHandMiddle1	LeftHand
LeftHandMiddle2	LeftHandMiddle1
LeftHandMiddle3	LeftHandMiddle2
LeftHandMiddle4	LeftHandMiddle3
LeftHandRing1	LeftHand
LeftHandRing2	LeftHandRing1
LeftHandRing3	LeftHandRing2
LeftHandRing4	LeftHandRing3
LeftHandPinky1	LeftHand
LeftHandPinky2	LeftHandPinky1
LeftHandPinky3	LeftHandPinky2
LeftHandPinky4	LeftHandPinky3
RightShoulder	Spine2
RightArm	RightShoulder
RightForeArm	RightArm
RightHand	RightForeArm
RightHandPinky1	RightHand
RightHandPinky2	RightHandPinky1
RightHandPinky3	RightHandPinky2
RightHandPinky4	RightHandPinky3
RightHandRing1	RightHand
RightHandRing2	RightHandRing1
RightHandRing3	RightHandRing2
RightHandRing4	RightHandRing3
RightHandMiddle1	RightHand
RightHandMiddle2	RightHandMiddle1
RightHandMiddle3	RightHandMiddle2
RightHandMiddle4	RightHandMiddle3
RightHandIndex1	RightHand
RightHandIndex2	RightHandIndex1
RightHandIndex3	RightHandIndex2
RightHandIndex4	RightHandIndex3
RightHandThumb1	RightHand
RightHandThumb2	RightHandThumb1
RightHandThumb3	RightHandThumb2
RightHandThumb4	RightHandThumb3
LeftUpLeg	Hips
LeftLeg	LeftUpLeg
LeftFoot	LeftLeg
LeftToeBase	LeftFoot
RightUpLeg	Hips
RightLeg	RightUpLeg
RightFoot	RightLeg
RightToeBase	RightFoot
[BasePosition]
Hips	0	0	0	0	0	0	1
Spine	0	0	0	0	0	0	1
Spine1	0	0	0	0	0	0	1
Spine2	0	0	0	0	0	0	1
Neck	0	0	0	0	0	0	1
Head	0	0	0	0	0	0	1
LeftEye	0	0	0	0	0	0	1
RightEye	0	0	0	0	0	0	1
LeftShoulder	0	0	0	0	0	0	1
LeftArm	0	0	0	0	0	0	1
LeftForeArm	0	0	0	0	0	0	1
LeftHand	0	0	0	0	0	0	1
LeftHandThumb1	0	0	0	0	0	0	1
LeftHandThumb2	0	0	0	0	0	0	1
LeftHandThumb3	0	0	0	0	0	0	1
LeftHandThumb4	0	0	0	0	0	0	1
LeftHandIndex1	0	0	0	0	0	0	1
LeftHandIndex2	0	0	0	0	0	0	1
LeftHandIndex3	0	0	0	0	0	0	1
LeftHandIndex4	0	0	0	0	0	0	1
LeftHandMiddle1	0	0	0	0	0	0	1
LeftHandMiddle2	0	0	0	0	0	0	1
LeftHandMiddle3	0	0	0	0	0	0	1
LeftHandMiddle4	0	0	0	0	0	0	1
LeftHandRing1	0	0	0	0	0	0	1
LeftHandRing2	0	0	0	0	0	0	1
LeftHandRing3	0	0	0	0	0	0	1
LeftHandRing4	0	0	0	0	0	0	1
LeftHandPinky1	0	0	0	0	0	0	1
LeftHandPinky2	0	0	0	0	0	0	1
LeftHandPinky3	0	0	0	0	0	0	1
LeftHandPinky4	0	0	0	0	0	0	1
RightShoulder	0	0	0	0	0	0	1
RightArm	0	0	0	0	0	0	1
RightForeArm	0	0	0	0	0	0	1
RightHand	0	0	0	0	0	0	1
RightHandPinky1	0	0	0	0	0	0	1
RightHandPinky2	0	0	0	0	0	0	1
RightHandPinky3	0	0	0	0	0	0	1
RightHandPinky4	0	0	0	0	0	0	1
RightHandRing1	0	0	0	0	0	0	1
RightHandRing2	0	0	0	0	0	0	1
RightHandRing3	0	0	0	0	0	0	1
RightHandRing4	0	0	0	0	0	0	1
RightHandMiddle1	0	0	0	0	0	0	1
RightHandMiddle2	0	0	0	0	0	0	1
RightHandMiddle3	0	0	0	0	0	0	1
RightHandMiddle4	0	0	0	0	0	0	1
RightHandIndex1	0	0	0	0	0	0	1
RightHandIndex2	0	0	0	0	0	0	1
RightHandIndex3	0	0	0	0	0	0	1
RightHandIndex4	0	0	0	0	0	0	1
RightHandThumb1	0	0	0	0	0	0	1
RightHandThumb2	0	0	0	0	0	0	1
RightHandThumb3	0	0	0	0	0	0	1
RightHandThumb4	0	0	0	0	0	0	1
LeftUpLeg	0	0	0	0	0	0	1
LeftLeg	0	0	0	0	0	0	1
LeftFoot	0	0	0	0	0	0	1
LeftToeBase	0	0	0	0	0	0	1
RightUpLeg	0	0	0	0	0	0	1
RightLeg	0	0	0	0	0	0	1
RightFoot	0	0	0	0	0	0	1
RightToeBase	0	0	0	0	0	0	1
[Hips]
17	-12.03510666	985.7709351	10.6847477	11.04555607	-53.51045227	-11.85302639	1.0
18	-12.24392986	986.4343872	10.91455364	10.9890213	-53.46541595	-11.78334332	1.0
[Spine]
17	9.234152094e-05	101.8158798	1.31520927	2.923098087	6.604200363	3.279633522	1.0
18	9.234152094e-05	101.8158798	1.31520927	2.887402296	6.641355991	3.265324831	1.0
[Spine1]
17	2.519402869e-06	100.8345108	-10.00804329	2.636334896	7.799952984	-0.1285867542	1.0
18	2.519402869e-06	100.8345108	-10.00804329	2.620549917	7.829864025	-0.1173091531	1.0
[Spine2]
17	3.4574864e-06	91.00010681	-13.73417091	2.693655729	7.804481506	-0.3193068206	1.0
18	3.4574864e-06	91.00010681	-13.73417091	2.678515434	7.832695007	-0.3047429919	1.0
[Neck]
17	6.334285445e-06	166.7166901	-25.16167831	11.38316154	7.579571247	-2.887444973	1.0
18	6.334285445e-06	166.7166901	-25.16167831	11.42509365	7.571456432	-2.878658295	1.0
[Head]
17	-4.242318937e-06	96.17874908	16.85007477	2.226202011	19.93050957	8.752585411	1.0
18	-4.242318937e-06	96.17874908	16.85007477	2.276678562	19.90182686	8.756106377	1.0
[LeftEye]
17	30.67560577	64.09507751	92.83554077	0	0	0	1.0
18	30.67560577	64.09507751	92.83554077	0	0	0	1.0
[RightEye]
17	-30.67550468	64.09500122	92.83547211	0	0	0	1.0
18	-30.67550468	64.09500122	92.83547211	0	0	0	1.0
[LeftShoulder]
17	45.70446396	109.4598465	-26.27988052	2.682026386	5.806915283	-12.60725975	1.0
18	45.70446396	109.4598465	-26.27988052	2.67976594	5.768583775	-12.54350853	1.0
[LeftArm]
17	105.9236984	-5.245829105	-22.32120132	-29.52236938	-56.42790985	-17.48405457	1.0
18	105.9236984	-5.245829105	-22.32120132	-29.39724922	-56.36853027	-17.58771706	1.0
[LeftForeArm]
17	278.4151917	-0.0008942864952	0.0003745891154	-1.655281631e-05	-82.46432495	-0.000154011228	1.0
18	278.4151917	-0.0008942864952	0.0003745891154	-2.033429155e-05	-82.36333466	-0.0001425659866	1.0
[LeftHand]
17	283.2883911	-0.0001744071778	0.0003780452244	-47.51781464	47.44291687	0.767632246	1.0
18	283.2883911	-0.0001744071778	0.0003780452244	-47.55443954	47.16386414	1.056260824	1.0
[LeftHandThumb1]
17	24.66140366	-15.7504921	26.82413483	-12.29798794	13.35949898	9.401165009	1.0
18	24.66140366	-15.7504921	26.82413483	-12.29798794	13.35949898	9.401165009	1.0
[LeftHandThumb2]
17	32.29803848	-18.6469059	18.64681244	-0.2483453304	-4.311873436	13.28869915	1.0
18	32.29803848	-18.6469059	18.64681244	-0.2483453304	-4.311873436	13.28869915	1.0
[LeftHandThumb3]
17	26.52565002	-15.31492996	15.31471634	-9.976514816	-23.52258492	0.1755283028	1.0
18	26.52565002	-15.31492996	15.31471634	-9.976514816	-23.52258492	0.1755283028	1.0
[LeftHandThumb4]
17	19.54566956	-11.2850008	11.28492165	0	0	0	1.0
18	19.54566956	-11.2850008	11.28492165	0	0	0	1.0
[LeftHandIndex1]
17	91.09301758	-5.170834064	22.6007309	-2.034207106	1.761208534	-31.54689026	1.0
18	91.09301758	-5.170834064	22.6007309	-2.034207106	1.761208534	-31.54689026	1.0
[LeftHandIndex2]
17	36.76409531	-6.939138257e-05	0.0002924251603	-3.082290649	5.140966415	-61.86808395	1.0
18	36.76409531	-6.939138257e-05	0.0002924251603	-3.082290649	5.140966415	-61.86808395	1.0
[LeftHandIndex3]
17	28.83062553	0.000385119667	-0.0004276481632	-0.5015913248	2.368166685	-23.91410255	1.0
18	28.83062553	0.000385119667	-0.0004276481632	-0.5015913248	2.368166685	-23.91410255	1.0
[LeftHandIndex4]
17	23.92720032	0.0003702590766	0.0003355443478	0	0	0	1.0
18	23.92720032	0.0003702590766	0.0003355443478	0	0	0	1.0
[LeftHandMiddle1]
17	95.33401489	-0.000339240476	0.0001393702551	-2.959770441	-0.3316034675	-41.48937225	1.0
18	95.33401489	-0.000339240476	0.0001393702551	-2.959770441	-0.3316034675	-41.48937225	1.0
[LeftHandMiddle2]
17	36.98236847	1.961359158e-05	0.0001791696704	-2.939359903	5.06229353	-60.2610817	1.0
18	36.98236847	1.961359158e-05	0.0001791696704	-2.939359903	5.06229353	-60.2610817	1.0
[LeftHandMiddle3]
17	29.50921631	-0.0003937608562	0.0001644795993	-1.315997601	3.691623449	-39.22911072	1.0
18	29.50921631	-0.0003937608562	0.0001644795993	-1.315997601	3.691623449	-39.22911072	1.0
[LeftHandMiddle4]
17	28.3390255	-0.0003893481917	-9.504223272e-05	0	0	0	1.0
18	28.3390255	-0.0003893481917	-9.504223272e-05	0	0	0	1.0
[LeftHandRing1]
17	91.04527283	-0.4393950403	-18.65084648	-3.775710106	-4.751326084	-49.6909523	1.0
18	91.04527283	-0.4393950403	-18.65084648	-3.775710106	-4.751326084	-49.6909523	1.0
[LeftHandRing2]
17	31.54026794	-6.55346812e-05	0.000104257444	-3.032872438	5.114353657	-61.31506729	1.0
18	31.54026794	-6.55346812e-05	0.000104257444	-3.032872438	5.114353657	-61.31506729	1.0
[LeftHandRing3]
17	29.37672424	-0.0004545861739	-6.864757597e-05	-0.350160718	1.992284179	-19.93597984	1.0
18	29.37672424	-0.0004545861739	-6.864757597e-05	-0.350160718	1.992284179	-19.93597984	1.0
[LeftHandRing4]
17	26.47452545	-0.0004980441299	7.070515267e-07	0	0	0	1.0
18	26.47452545	-0.0004980441299	7.070515267e-07	0	0	0	1.0
[LeftHandPinky1]
17	80.77777863	-4.886682034	-38.06066895	-2.494308233	-10.25931644	-37.81870651	1.0
18	80.77777863	-4.886682034	-38.06066895	-2.494308233	-10.25931644	-37.81870651	1.0
[LeftHandPinky2]
17	36.00034332	-2.252215199e-05	-0.0002623879409	-2.836258411	5.002195358	-59.08558273	1.0
18	36.00034332	-2.252215199e-05	-0.0002623879409	-2.836258411	5.002195358	-59.08558273	1.0
[LeftHandPinky3]
17	21.14211655	0.0001953828178	-2.864415183e-05	-0.872974813	3.07111001	-31.72867775	1.0
18	21.14211655	0.0001953828178	-2.864415183e-05	-0.872974813	3.07111001	-31.72867775	1.0
[LeftHandPinky4]
17	19.7568264	0.0001240565616	-0.0004430140834	0	0	0	1.0
18	19.7568264	0.0001240565616	-0.0004430140834	0	0	0	1.0
[RightShoulder]
17	-45.69969559	109.4617615	-26.28017426	-14.77422142	1.210170746	-4.572785378	1.0
18	-45.69969559	109.4617615	-26.28017426	-14.79568863	1.141213655	-4.680809021	1.0
[RightArm]
17	-105.9284363	-5.247983932	-22.32098579	-63.69763947	118.7777481	-18.18141365	1.0
18	-105.9284363	-5.247983932	-22.32098579	-63.23392487	118.8483047	-17.81315613	1.0
[RightForeArm]
17	-278.4151917	-0.0003307921579	0.0001167631053	-6.824246157e-06	30.00297546	-3.934131655e-06	1.0
18	-278.4151917	-0.0003307921579	0.0001167631053	-4.679829999e-07	29.63644218	-2.38209509e-06	1.0
[RightHand]
17	-283.2883911	-1.581417109e-06	0.000558160129	-42.77925873	-29.54592514	-15.94768715	1.0
18	-283.2883911	-1.581417109e-06	0.000558160129	-42.8712616	-29.21397781	-15.99336338	1.0
[RightHandPinky1]
17	-80.76674652	-4.88459301	-38.06010437	-4.179559231	-3.048670053	59.07947159	1.0
18	-80.76674652	-4.88459301	-38.06010437	-4.179559231	-3.048670053	59.07947159	1.0
[RightHandPinky2]
17	-36.00034332	0.0003967665543	0.0005081442068	-3.174546003	-4.396142006	71.67469025	1.0
18	-36.00034332	0.0003967665543	0.0005081442068	-3.174546003	-4.396142006	71.67469025	1.0
[RightHandPinky3]
17	-21.14211655	0.0001513792522	0.0001479376951	-1.761317968	-3.635984421	51.6805954	1.0
18	-21.14211655	0.0001513792522	0.0001479376951	-1.761317968	-3.635984421	51.6805954	1.0
[RightHandPinky4]
17	-19.7568264	-0.000185219571	-9.839841368e-06	0	0	0	1.0
18	-19.7568264	-0.000185219571	-9.839841368e-06	0	0	0	1.0
[RightHandRing1]
17	-91.03588104	-0.4391434789	-18.65072441	-4.049632549	-6.933060169	57.63954544	1.0
18	-91.03588104	-0.4391434789	-18.65072441	-4.049632549	-6.933060169	57.63954544	1.0
[RightHandRing2]
17	-31.54026794	0.0002399729856	0.0004885121016	-5.297682285	-4.582300186	98.2931366	1.0
18	-31.54026794	0.0002399729856	0.0004885121016	-5.297682285	-4.582300186	98.2931366	1.0
[RightHandRing3]
17	-29.37672424	-0.0004160065437	-0.0003966063377	-1.618076921	-3.518265247	49.38505554	1.0
18	-29.37672424	-0.0004160065437	-0.0003966063377	-1.618076921	-3.518265247	49.38505554	1.0
[RightHandRing4]
17	-26.47452545	0.0002460821415	-2.294923434e-05	0	0	0	1.0
18	-26.47452545	0.0002460821415	-2.294923434e-05	0	0	0	1.0
[RightHandMiddle1]
17	-95.32502747	-0.0001631230261	0.0001679184206	-3.53036809	-16.46828079	52.07723618	1.0
18	-95.32502747	-0.0001631230261	0.0001679184206	-3.53036809	-16.46828079	52.07723618	1.0
[RightHandMiddle2]
17	-36.98236847	0.000150669599	-0.0002254552383	-6.350979805	-4.299677372	111.8329315	1.0
18	-36.98236847	0.000150669599	-0.0002254552383	-6.350979805	-4.299677372	111.8329315	1.0
[RightHandMiddle3]
17	-29.50921631	-3.113244929e-06	-3.03402544e-06	-0.2459617406	-1.492588997	18.73979759	1.0
18	-29.50921631	-3.113244929e-06	-3.03402544e-06	-0.2459617406	-1.492588997	18.73979759	1.0
[RightHandMiddle4]
17	-28.3390255	8.05324089e-05	0.0005378770875	0	0	0	1.0
18	-28.3390255	8.05324089e-05	0.0005378770875	0	0	0	1.0
[RightHandIndex1]
17	-91.08280945	-5.167889595	22.60116386	-1.387360573	-4.207729816	25.46813583	1.0
18	-91.08280945	-5.167889595	22.60116386	-1.387360573	-4.207729816	25.46813583	1.0
[RightHandIndex2]
17	-36.76409531	0.0001922715601	0.0003235567128	-1.643622756	-3.539990187	49.80016327	1.0
18	-36.76409531	0.0001922715601	0.0003235567128	-1.643622756	-3.539990187	49.80016327	1.0
[RightHandIndex3]
17	-28.83062553	-0.0004960121587	0.0004044897505	-1.727792621	-3.609309912	51.15027237	1.0
18	-28.83062553	-0.0004960121587	0.0004044897505	-1.727792621	-3.609309912	51.15027237	1.0
[RightHandIndex4]
17	-23.92720032	0.0002681470069	0.0002802013478	0	0	0	1.0
18	-23.92720032	0.0002681470069	0.0002802013478	0	0	0	1.0
[RightHandThumb1]
17	-24.64805984	-15.72714233	26.82626534	7.322416306	-6.350176334	10.24958611	1.0
18	-24.64805984	-15.72714233	26.82626534	7.322416306	-6.350176334	10.24958611	1.0
[RightHandThumb2]
17	-32.29771805	-18.6470871	18.64718437	26.54580307	-9.159310341	-24.03568459	1.0
18	-32.29771805	-18.6470871	18.64718437	26.54580307	-9.159310341	-24.03568459	1.0
[RightHandThumb3]
17	-26.52605057	-15.31449318	15.31445599	31.8479023	-40.59857559	-44.24287415	1.0
18	-26.52605057	-15.31449318	15.31445599	31.8479023	-40.59857559	-44.24287415	1.0
[RightHandThumb4]
17	-19.54580498	-11.28461742	11.28507042	0	0	0	1.0
18	-19.54580498	-11.28461742	11.28507042	0	0	0	1.0
[LeftUpLeg]
17	82.07781982	-67.51714325	-15.99555588	-27.4886322	18.9944725	15.93365097	1.0
18	82.07781982	-67.51714325	-15.99555588	-27.33480072	18.95403862	15.88844013	1.0
[LeftLeg]
17	-4.110157988e-06	-443.7047119	2.846426487	27.54201317	8.376123428	4.998692989	1.0
18	-4.110157988e-06	-443.7047119	2.846426487	27.25810432	8.423481941	4.963470936	1.0
[LeftFoot]
17	4.716393505e-06	-444.278717	-29.82190704	3.361475468	6.612367153	-8.671508789	1.0
18	4.716393505e-06	-444.278717	-29.82190704	3.465399504	6.599852562	-8.626617432	1.0
[LeftToeBase]
17	-2.960988058e-05	-87.28669739	107.1055984	1.342095857e-07	-3.222650776e-06	-1.754975301e-06	1.0
18	-2.960988058e-05	-87.28669739	107.1055984	1.342095857e-07	-3.222650776e-06	-1.754975301e-06	1.0
[RightUpLeg]
17	-82.07795715	-67.51662445	-15.99559402	-13.41145515	-15.16398239	-5.362416267	1.0
18	-82.07795715	-67.51662445	-15.99559402	-13.20365334	-15.20185566	-5.414223194	1.0
[RightLeg]
17	8.435572454e-07	-443.7053833	2.861563921	22.86032104	8.161631584	2.476736307	1.0
18	8.435572454e-07	-443.7053833	2.861563921	22.51295471	8.15850544	2.449371576	1.0
[RightFoot]
17	9.644581951e-06	-444.2773132	-29.83789063	-9.323420525	-8.904098511	13.50184631	1.0
18	9.644581951e-06	-444.2773132	-29.83789063	-9.184709549	-8.93094635	13.50875378	1.0
[RightToeBase]
17	-2.360438157e-05	-87.28668976	107.1056061	-2.270344567e-06	3.233250936e-06	2.690227348e-06	1.0
18	-2.360438157e-05	-87.28668976	107.1056061	-2.270344567e-06	3.233250936e-06	2.690227348e-06	1.0
[EndOfFile]
